<?xml version="1.0" encoding="utf-8"?>
<!-- Generator: Adobe Illustrator 17.1.0, SVG Export Plug-In . SVG Version: 6.00 Build 0)  -->
<!DOCTYPE svg PUBLIC "-//W3C//DTD SVG 1.1//EN" "http://www.w3.org/Graphics/SVG/1.1/DTD/svg11.dtd">
<svg version="1.1" id="Layer_1" xmlns="http://www.w3.org/2000/svg" xmlns:xlink="http://www.w3.org/1999/xlink" x="0px" y="0px"
	 viewBox="-6.5 75.1 622.9 643.8" enable-background="new -6.5 75.1 622.9 643.8" xml:space="preserve">
<path fill="#2B2B2B" stroke="#000000" stroke-width="11" stroke-miterlimit="10" d="M184.9,668.2c0-1.8,0-3.6-0.5-5.4
	c-16.3-7.2-31.7-15.4-46.1-25.3c-4.1,1.8-7.2,4.1-10.4,6.8c-5.9,5.9-10,14.5-10,23.5s3.6,17.6,10,23.5c6.3,5.9,14.5,10,23.5,10
	s17.6-3.6,23.5-10C180.8,684.9,184.9,677.7,184.9,668.2 M275.8,686.7c1.4,2.7,3.6,5.4,5.9,7.7c5.9,5.9,14.5,10,23.5,10
	s17.6-3.6,23.5-10c2.3-2.3,4.1-5,5.9-7.7c-9.5,0.9-19.5,1.4-29.4,1.4C295.3,688.1,285.3,687.6,275.8,686.7z M425.5,663.2
	c-0.5,1.8-0.5,3.6-0.5,5.4c0,9,3.6,17.6,10,23.5c6.3,5.9,14.5,10,23.5,10s17.6-3.6,23.5-10c5.9-5.9,10-14.5,10-23.5
	s-3.6-17.6-10-23.5c-2.7-2.7-6.3-5.4-10.4-6.8C457.2,647.4,441.8,656,425.5,663.2z M420.1,668.2c0-0.9,0-2.3,0-3.2
	c-25.3,10.4-52.5,17.6-80.5,20.8c-1.8,4.5-4.5,8.6-8.1,11.8c-6.8,6.8-16.3,11.3-27.1,11.3c-10.4,0-19.9-4.1-27.1-11.3
	c-3.2-3.2-6.3-7.2-8.1-11.8c-28-3.2-55.2-10.4-80.5-20.8c0,0.9,0,2.3,0,3.2c0,10.4-4.1,19.9-11.3,27.1c-6.8,6.8-16.3,11.3-27.1,11.3
	s-19.9-4.1-27.1-11.3c-6.8-6.8-11.3-16.3-11.3-27.1c0-10.4,4.1-19.9,11.3-27.1c2.7-2.7,5.9-5,9-6.8c-14.9-10.4-28.9-22.2-42.1-34.8
	C37.4,545.1,3.5,470.1,3.5,386.8s33.9-158.8,88.2-213c54.7-54.7,129.8-88.7,213.5-88.7c83.2,0,158.8,33.9,213,88.2
	c54.7,54.7,88.2,129.8,88.2,213s-33.9,158.8-88.2,213c-12.7,12.7-26.7,24.4-42.1,34.8c3.2,1.8,6.3,4.1,9,6.8
	c6.8,6.8,11.3,16.3,11.3,27.1s-4.1,19.9-11.3,27.1c-6.8,6.8-16.3,11.3-27.1,11.3c-10.9,0-19.9-4.1-27.1-11.3
	C423.7,688.1,420.1,679,420.1,668.2z M601.5,386.8c0-81.9-33-156.1-86.8-209.9c-53.4-53.8-127.6-86.8-209.4-86.8
	s-156.1,33-209.9,86.8S8.5,304.5,8.5,386.8s33,156.1,86.8,209.9c32.1,32.1,71.5,56.5,114.4,71c29.9,10.4,61.5,15.8,94.5,15.8
	c0.5,0,0.9,0,1.8,0c78.3,0,153.3-31.2,209-86.8C568.5,542.9,601.5,468.7,601.5,386.8z"/>
<g>
	<g>
		<path id="SVGID_1_" fill="#2B2B2B" stroke="#000000" stroke-width="11" stroke-miterlimit="10" d="M8.5,386.8
			C32.5,494,212,523,305.7,523.4c97.3,0,260.1-28,296.3-133c0,4.5-0.5,9-0.5,13.6C560.3,502.6,402,531.6,306.1,531.6
			c-90.5-0.5-259.6-29.4-296.7-125.7C8.5,399.5,8.5,393.6,8.5,386.8"/>
	</g>
	<g>
		<g>
			<g>
				<g>
					<defs>
						<path id="SVGID_3_" d="M8.5,386.8C32.5,494,212,523,305.7,523.4c97.3,0,260.1-28,296.3-133c0,4.5-0.5,9-0.5,13.6
							C560.3,502.6,402,531.6,306.1,531.6c-90.5-0.5-259.6-29.4-296.7-125.7C8.5,399.5,8.5,393.6,8.5,386.8"/>
					</defs>
					<clipPath id="SVGID_4_">
						<use xlink:href="#SVGID_3_"  overflow="visible"/>
					</clipPath>
					
						<rect x="8.5" y="386.8" clip-path="url(#SVGID_4_)" fill="#2B2B2B" stroke="#000000" stroke-width="11" stroke-miterlimit="10" width="593.5" height="144.7"/>
				</g>
			</g>
			<g>
				<path id="SVGID_2_" fill="none" stroke="#000000" stroke-width="11" stroke-miterlimit="10" d="M8.5,386.8
					C32.5,494,212,523,305.7,523.4c97.3,0,260.1-28,296.3-133c0,4.5-0.5,9-0.5,13.6C560.3,502.6,402,531.6,306.1,531.6
					c-90.5-0.5-259.6-29.4-296.7-125.7C8.5,399.5,8.5,393.6,8.5,386.8"/>
			</g>
		</g>
	</g>
</g>
</svg>
